<?xml version="1.0" encoding="UTF-8" standalone="no"?>
<!DOCTYPE svg PUBLIC "-//W3C//DTD SVG 1.1//EN" "http://www.w3.org/Graphics/SVG/1.1/DTD/svg11.dtd">
<svg version="1.1" xmlns="http://www.w3.org/2000/svg" xmlns:xlink="http://www.w3.org/1999/xlink" preserveAspectRatio="xMidYMid meet" viewBox="0 0 640 640" width="640" height="640"><defs><path d="M351 155C346 156 342 157 337 158C346 131 372 68 436 43C447 39 452 27 448 16C444 5 432 0 421 4C357 28 323 81 306 120C300 93 287 60 260 37C210 -7 131 1 131 1C131 1 133 81 183 125C194 135 206 142 219 147C123 153 53 224 53 344C53 469 129 640 231 640C246 640 261 636 274 629C303 615 337 615 365 629C379 636 393 640 408 640C510 640 586 469 586 343C587 218 511 146 409 146C388 146 369 149 351 155Z" id="g1tFXkHbX6"></path></defs><g><g><g><use xlink:href="#g1tFXkHbX6" opacity="1" fill="#4387f7" fill-opacity="1"></use><g><use xlink:href="#g1tFXkHbX6" opacity="1" fill-opacity="0" stroke="#000000" stroke-width="1" stroke-opacity="0"></use></g></g></g></g></svg>